<mxfile host="app.diagrams.net" agent="Mozilla/5.0 (Windows NT 10.0; Win64; x64) AppleWebKit/537.36 (KHTML, like Gecko) Chrome/140.0.0.0 Safari/537.36" version="28.2.0">
  <diagram name="Page-1" id="w8FTJDMSahVpkhEm6al5">
    <mxGraphModel dx="1209" dy="656" grid="1" gridSize="10" guides="1" tooltips="1" connect="1" arrows="1" fold="1" page="1" pageScale="1" pageWidth="850" pageHeight="1100" math="0" shadow="0">
      <root>
        <mxCell id="0" />
        <mxCell id="1" parent="0" />
        <mxCell id="piGXuK5LhN3dvYOMb9wK-1" value="Cl&lt;span style=&quot;background-color: transparent; color: light-dark(rgb(0, 0, 0), rgb(255, 255, 255));&quot;&gt;ient&lt;/span&gt;" style="rounded=1;whiteSpace=wrap;html=1;" vertex="1" parent="1">
          <mxGeometry x="40" y="150" width="120" height="140" as="geometry" />
        </mxCell>
        <mxCell id="piGXuK5LhN3dvYOMb9wK-2" value="DTO" style="rounded=1;whiteSpace=wrap;html=1;" vertex="1" parent="1">
          <mxGeometry x="240" y="150" width="120" height="140" as="geometry" />
        </mxCell>
        <mxCell id="piGXuK5LhN3dvYOMb9wK-3" value="Controller" style="rounded=1;whiteSpace=wrap;html=1;" vertex="1" parent="1">
          <mxGeometry x="440" y="150" width="120" height="140" as="geometry" />
        </mxCell>
        <mxCell id="piGXuK5LhN3dvYOMb9wK-4" value="Service" style="rounded=1;whiteSpace=wrap;html=1;" vertex="1" parent="1">
          <mxGeometry x="630" y="150" width="120" height="140" as="geometry" />
        </mxCell>
        <mxCell id="piGXuK5LhN3dvYOMb9wK-5" value="Repository" style="rounded=1;whiteSpace=wrap;html=1;" vertex="1" parent="1">
          <mxGeometry x="820" y="150" width="120" height="140" as="geometry" />
        </mxCell>
        <mxCell id="piGXuK5LhN3dvYOMb9wK-7" value="databa&lt;span style=&quot;background-color: transparent; color: light-dark(rgb(0, 0, 0), rgb(255, 255, 255));&quot;&gt;se&lt;/span&gt;" style="shape=cylinder3;whiteSpace=wrap;html=1;boundedLbl=1;backgroundOutline=1;size=15;" vertex="1" parent="1">
          <mxGeometry x="1030" y="170" width="110" height="120" as="geometry" />
        </mxCell>
        <mxCell id="piGXuK5LhN3dvYOMb9wK-8" value="Model" style="rounded=1;whiteSpace=wrap;html=1;" vertex="1" parent="1">
          <mxGeometry x="820" width="120" height="60" as="geometry" />
        </mxCell>
        <mxCell id="piGXuK5LhN3dvYOMb9wK-9" value="" style="endArrow=classic;html=1;rounded=0;entryX=-0.001;entryY=0.316;entryDx=0;entryDy=0;entryPerimeter=0;exitX=1.004;exitY=0.309;exitDx=0;exitDy=0;exitPerimeter=0;" edge="1" parent="1" source="piGXuK5LhN3dvYOMb9wK-1" target="piGXuK5LhN3dvYOMb9wK-2">
          <mxGeometry width="50" height="50" relative="1" as="geometry">
            <mxPoint x="170" y="190" as="sourcePoint" />
            <mxPoint x="630" y="220" as="targetPoint" />
          </mxGeometry>
        </mxCell>
        <mxCell id="piGXuK5LhN3dvYOMb9wK-10" value="" style="endArrow=classic;html=1;rounded=0;entryX=-0.001;entryY=0.316;entryDx=0;entryDy=0;entryPerimeter=0;exitX=1;exitY=0.25;exitDx=0;exitDy=0;" edge="1" parent="1" source="piGXuK5LhN3dvYOMb9wK-2">
          <mxGeometry width="50" height="50" relative="1" as="geometry">
            <mxPoint x="370" y="190" as="sourcePoint" />
            <mxPoint x="440" y="194" as="targetPoint" />
          </mxGeometry>
        </mxCell>
        <mxCell id="piGXuK5LhN3dvYOMb9wK-11" value="" style="endArrow=classic;html=1;rounded=0;entryX=-0.001;entryY=0.316;entryDx=0;entryDy=0;entryPerimeter=0;" edge="1" parent="1">
          <mxGeometry width="50" height="50" relative="1" as="geometry">
            <mxPoint x="560" y="200" as="sourcePoint" />
            <mxPoint x="630" y="204" as="targetPoint" />
          </mxGeometry>
        </mxCell>
        <mxCell id="piGXuK5LhN3dvYOMb9wK-12" value="" style="endArrow=classic;html=1;rounded=0;" edge="1" parent="1">
          <mxGeometry width="50" height="50" relative="1" as="geometry">
            <mxPoint x="750" y="200" as="sourcePoint" />
            <mxPoint x="820" y="200" as="targetPoint" />
          </mxGeometry>
        </mxCell>
        <mxCell id="piGXuK5LhN3dvYOMb9wK-13" value="" style="endArrow=classic;html=1;rounded=0;exitX=0.5;exitY=0;exitDx=0;exitDy=0;" edge="1" parent="1" source="piGXuK5LhN3dvYOMb9wK-5">
          <mxGeometry width="50" height="50" relative="1" as="geometry">
            <mxPoint x="830" y="110" as="sourcePoint" />
            <mxPoint x="880" y="60" as="targetPoint" />
          </mxGeometry>
        </mxCell>
        <mxCell id="piGXuK5LhN3dvYOMb9wK-15" style="edgeStyle=orthogonalEdgeStyle;rounded=0;orthogonalLoop=1;jettySize=auto;html=1;entryX=0;entryY=0;entryDx=0;entryDy=37.5;entryPerimeter=0;" edge="1" parent="1" source="piGXuK5LhN3dvYOMb9wK-5" target="piGXuK5LhN3dvYOMb9wK-7">
          <mxGeometry relative="1" as="geometry" />
        </mxCell>
        <mxCell id="piGXuK5LhN3dvYOMb9wK-16" value="&lt;font style=&quot;font-size: 24px;&quot;&gt;web, data jpa, myssql,&amp;nbsp; dev tools, thymleaf&lt;/font&gt;" style="text;html=1;align=center;verticalAlign=middle;resizable=0;points=[];autosize=1;strokeColor=none;fillColor=none;" vertex="1" parent="1">
          <mxGeometry x="110" y="380" width="470" height="40" as="geometry" />
        </mxCell>
      </root>
    </mxGraphModel>
  </diagram>
</mxfile>
